<svg id="Layer_1" data-name="Layer 1" xmlns="http://www.w3.org/2000/svg" viewBox="0 0 366.69 408.65"><title>icon</title><path d="M100.16,427.69h0a58.5,58.5,0,0,1-58.5-58.5V193.89a58.5,58.5,0,0,1,58.5-58.5h0a58.5,58.5,0,0,1,58.5,58.5v175.3A58.5,58.5,0,0,1,100.16,427.69Zm0-408.65A52.65,52.65,0,1,0,152.81,71.7,52.65,52.65,0,0,0,100.16,19Zm308.2,350.15V193.89a58.5,58.5,0,0,0-58.5-58.5h0a58.5,58.5,0,0,0-58.5,58.5v175.3a58.5,58.5,0,0,0,58.5,58.5h0A58.5,58.5,0,0,0,408.35,369.19ZM349.86,19A52.65,52.65,0,1,0,402.51,71.7,52.65,52.65,0,0,0,349.86,19ZM225,322.39A52.65,52.65,0,1,0,277.66,375,52.65,52.65,0,0,0,225,322.39Z" transform="translate(-41.66 -19.04)"/></svg>